<?xml version="1.0" encoding="UTF-8" standalone="no"?>
<svg
   xmlns:dc="http://purl.org/dc/elements/1.1/"
   xmlns:cc="http://creativecommons.org/ns#"
   xmlns:rdf="http://www.w3.org/1999/02/22-rdf-syntax-ns#"
   xmlns:svg="http://www.w3.org/2000/svg"
   xmlns="http://www.w3.org/2000/svg"
   xmlns:sodipodi="http://sodipodi.sourceforge.net/DTD/sodipodi-0.dtd"
   xmlns:inkscape="http://www.inkscape.org/namespaces/inkscape"
   version="1.1"
   id="svg2"
   viewBox="0 0 212.59843 213.7108"
   height="60.313938mm"
   width="60mm"
   inkscape:version="0.91 r13725"
   sodipodi:docname="screw_logo.svg">
  <sodipodi:namedview
     pagecolor="#ffffff"
     bordercolor="#666666"
     borderopacity="1"
     objecttolerance="10"
     gridtolerance="10"
     guidetolerance="10"
     inkscape:pageopacity="0"
     inkscape:pageshadow="2"
     inkscape:window-width="1855"
     inkscape:window-height="1056"
     id="namedview3365"
     showgrid="false"
     fit-margin-top="0"
     fit-margin-left="0"
     fit-margin-right="0"
     fit-margin-bottom="0"
     inkscape:zoom="0.87327348"
     inkscape:cx="120.92069"
     inkscape:cy="-71.484514"
     inkscape:window-x="65"
     inkscape:window-y="24"
     inkscape:window-maximized="1"
     inkscape:current-layer="svg2" />
  <defs
     id="defs4" />
  <metadata
     id="metadata7">
    <rdf:RDF>
      <cc:Work
         rdf:about="">
        <dc:format>image/svg+xml</dc:format>
        <dc:type
           rdf:resource="http://purl.org/dc/dcmitype/StillImage" />
        <dc:title></dc:title>
      </cc:Work>
    </rdf:RDF>
  </metadata>
  <g
     id="layer1"
     transform="translate(-272.75104,-105.31238)">
    <g
       transform="matrix(0.29231046,0,0,0.29231046,274.14309,155.20473)"
       id="g4288">
      <path
         style="fill:#000000"
         d="M 683.75,522.75"
         id="path4240"
         inkscape:connector-curvature="0" />
      <g
         transform="matrix(-0.25881905,0.96592583,-0.96592583,-0.25881905,664.47533,84.024114)"
         id="g4485">
        <path
           style="fill:#000000"
           d="m 330.595,67.576 c -20.629,-17.366 -62.01,17.45 -62.01,17.45 -45.637,34.351 -30.448,57.378 -30.448,57.378 2.684,3.451 9.148,4.897 9.148,4.897 16.986,2.647 25.544,-7.135 25.544,-7.135 9.679,-14.487 17.095,-15.491 17.095,-15.491 0.571,-0.164 14.764,-6.253 14.764,-6.253 9.188,-0.854 14.809,-3.599 14.809,-3.599 41.262,-31.096 11.098,-47.247 11.098,-47.247 z m -63.976,67.914 -1.799,-1.858 c -4.843,-7.708 -8.877,-9.179 -8.877,-9.179 -5.558,-0.854 -2.85,6.182 -2.85,6.182 10.125,5.973 7.821,9.548 7.821,9.548 -1.864,1.445 -9.069,0.971 -9.069,0.971 -4.37,-0.283 -6.298,-2.848 -6.298,-2.848 -1.383,-0.976 -4.217,-5.478 -4.217,-5.478 -3.041,-5.848 3.881,-15.515 3.881,-15.515 4.018,-6.907 9.294,-8.879 9.294,-8.879 5.088,0.98 12.205,10.658 12.205,10.658 7.194,7.2 7.252,10.855 7.252,10.855 -2.052,4.397 -7.343,5.543 -7.343,5.543 z m 40.963,-24.12 c -2.483,1.434 -6.769,0.802 -6.769,0.802 -3.777,-0.058 -8.681,3.088 -8.681,3.088 -4.795,2.555 -6.316,2.107 -6.316,2.107 -1.512,0.024 -1.476,-2.455 -1.476,-2.455 -1.101,-2.458 -3.937,-2.768 -3.937,-2.768 -3.673,-1.002 -4.835,0.078 -4.835,0.078 -2.09,2.157 3.04,5.732 3.04,5.732 2.276,2.087 3.263,4.785 3.263,4.785 0.152,2.12 -4.932,1.497 -4.932,1.497 -2.215,-5.748 -17.315,-20.489 -17.315,-20.489 -1.722,-4.454 5.648,-8.23 5.648,-8.23 4.084,-2.778 5.216,1.568 5.216,1.568 0.569,1.487 1.638,6.463 1.638,6.463 0.77,3.88 4.298,3.233 4.298,3.233 2.808,-1.46 2.156,-5.326 2.156,-5.326 0.067,-3.171 -5.582,-9.719 -5.582,-9.719 -1.389,-5.642 3.957,-3.368 3.957,-3.368 2.508,1.966 10.915,18.582 10.915,18.582 1.447,1.984 3.334,1.954 3.334,1.954 3.662,0.295 2.645,-4.292 2.645,-4.292 0.421,-3.195 -4.125,-7.127 -4.125,-7.127 -2.536,-3.617 -6.029,-8.163 -6.029,-8.163 -3.313,-5.211 -2.445,-6.221 -2.445,-6.221 0.701,-1.846 3.948,-4.301 3.948,-4.301 4.589,-2.08 8.924,5.991 8.924,5.991 3.369,4.193 9.938,16.475 9.938,16.475 6.995,9.68 3.522,10.104 3.522,10.104 z m 5.545,-3.877 c -3.106,-9.624 -8.77,-17.199 -8.77,-17.199 -5.441,-8.171 -7.541,-14.037 -7.541,-14.037 -0.519,-3.176 6.403,-5.324 6.403,-5.324 6.142,-3.283 7.58,-1.713 7.58,-1.713 3.826,1.177 3.804,12.651 3.804,12.651 0.935,6.709 4.92,5.112 4.92,5.112 6.156,-5.761 1.355,-11.229 1.355,-11.229 -1.344,-2.691 -4.006,-7.014 -4.006,-7.014 0.926,-1.076 4.244,-0.068 4.244,-0.068 6.52,1.9 10.634,8.323 10.634,8.323 5.199,8.057 -0.596,14.46 -0.596,14.46 -9.871,17.088 -18.027,16.038 -18.027,16.038 z"
           id="path4244"
           inkscape:connector-curvature="0" />
        <path
           style="fill:#000000"
           d="m 479.668,213.433 c 7.411,-27.643 -44.678,-51.755 -44.678,-51.755 -53.559,-28.41 -68.855,-3.447 -68.855,-3.447 -2.112,4.133 -0.592,10.996 -0.592,10.996 5.099,17.52 18.352,21.344 18.352,21.344 18.28,2.785 22.583,9.462 22.583,9.462 0.417,0.476 12.653,11.379 12.653,11.379 4.959,8.446 10.125,12.614 10.125,12.614 48.46,25.672 50.412,-10.593 50.412,-10.593 z M 394.23,187.062 c -5.151,0.005 -8.636,-4.564 -8.636,-4.564 l 0.979,-2.566 c 5.23,-8.125 4.826,-12.663 4.826,-12.663 -1.677,-5.728 -7.221,0.041 -7.221,0.041 -1.188,12.419 -5.66,11.815 -5.66,11.815 -2.228,-1.142 -5.014,-8.281 -5.014,-8.281 -1.694,-4.328 -0.096,-7.336 -0.096,-7.336 0.312,-1.768 3.368,-6.518 3.368,-6.518 4.253,-5.557 16.66,-3.252 16.66,-3.252 8.445,0.755 12.717,4.94 12.717,4.94 1.348,5.333 -4.753,16.527 -4.753,16.527 -3.683,10.156 -7.17,11.857 -7.17,11.857 z m 32.986,23.958 c -2.495,-1.743 -3.818,-6.146 -3.818,-6.146 -1.642,-3.657 -6.873,-6.955 -6.873,-6.955 -4.614,-3.461 -4.868,-5.124 -4.868,-5.124 -0.704,-1.442 1.694,-2.522 1.694,-2.522 1.871,-2.166 0.888,-5.03 0.888,-5.03 -0.688,-3.982 -2.248,-4.615 -2.248,-4.615 -3.014,-1.036 -4.142,5.503 -4.142,5.503 -0.982,3.127 -3.132,5.289 -3.132,5.289 -1.972,1.101 -3.656,-4.067 -3.656,-4.067 4.526,-4.716 11.899,-25.864 11.899,-25.864 3.511,-3.661 10.453,1.726 10.453,1.726 4.513,2.676 0.842,5.719 0.842,5.719 -1.173,1.219 -5.476,4.484 -5.476,4.484 -3.382,2.486 -1.174,5.587 -1.174,5.587 2.668,2.042 6.088,-0.326 6.088,-0.326 3.079,-1.361 6.834,-9.739 6.834,-9.739 4.797,-3.87 5.017,2.29 5.017,2.29 -0.76,3.296 -12.952,18.854 -12.952,18.854 -1.253,2.283 -0.378,4.083 -0.378,4.083 1.367,3.654 5.32,0.612 5.32,0.612 3.26,-1.034 4.995,-7.172 4.995,-7.172 2.334,-4.065 5.131,-9.469 5.131,-9.469 3.518,-5.53 4.88,-5.15 4.88,-5.15 2.088,-0.158 5.912,1.86 5.912,1.86 4.062,3.475 -1.746,11.273 -1.746,11.273 -2.513,5.127 -11.364,16.967 -11.364,16.967 -6.155,11.08 -8.126,7.932 -8.126,7.932 z m 6.221,3.584 c 7.856,-7.315 12.589,-16.168 12.589,-16.168 5.406,-8.907 10.098,-13.564 10.098,-13.564 2.818,-1.928 7.999,3.759 7.999,3.759 5.919,4.426 5.059,6.516 5.059,6.516 0.588,4.207 -10.45,9.348 -10.45,9.348 -6.029,3.919 -2.7,7.03 -2.7,7.03 8.31,3.326 11.403,-3.752 11.403,-3.752 1.985,-2.5 4.94,-7.006 4.94,-7.006 1.452,0.406 1.974,4.051 1.974,4.051 1.108,7.123 -3.217,13.966 -3.217,13.966 -5.401,8.625 -14.166,5.935 -14.166,5.935 -20.869,-1.803 -23.529,-10.115 -23.529,-10.115 z"
           id="path4246"
           inkscape:connector-curvature="0" />
        <circle
           style="fill:#000000"
           cx="201.60201"
           cy="316.172"
           r="68.639999"
           id="circle4248" />
        <path
           style="fill:#000000"
           d="M 544.127,191.179 C 526.973,137.145 479.801,77.965 390.603,42.8 301.404,7.635 235.255,55.772 235.255,55.772 120.218,121.922 53.534,333.552 46.672,375.578 c -6.862,42.027 -6.003,139.801 75.477,160.387 81.479,20.584 68.614,38.598 157.813,20.584 89.2,-18.01 187.833,-97.773 236.719,-170.676 48.888,-72.902 44.601,-140.661 27.446,-194.694 z M 509.354,382.865 C 462.12,453.303 366.824,530.369 280.639,547.771 194.456,565.171 206.888,547.769 128.164,527.88 49.439,507.991 48.609,413.525 55.239,372.917 c 6.629,-40.604 71.059,-245.076 182.205,-308.99 0,0 63.912,-46.509 150.095,-12.533 86.182,33.976 131.758,91.155 148.332,143.361 16.576,52.207 20.718,117.673 -26.517,188.11 z"
           id="path4250"
           inkscape:connector-curvature="0" />
        <circle
           style="fill:#000000"
           cx="284.08801"
           cy="463.17001"
           r="17.412001"
           id="circle4252" />
        <circle
           style="fill:#000000"
           cx="366.383"
           cy="455.431"
           r="25.150999"
           id="circle4254" />
        <circle
           style="fill:#000000"
           cx="325.224"
           cy="290.20001"
           r="7.9070001"
           id="circle4256" />
        <ellipse
           style="fill:#000000"
           cx="116.975"
           cy="462.70099"
           rx="6.6859999"
           ry="6.119"
           id="ellipse4258" />
        <ellipse
           style="fill:#000000"
           cx="112.497"
           cy="474.87601"
           rx="4.4790001"
           ry="4.415"
           id="ellipse4260" />
        <circle
           style="fill:#000000"
           cx="128.896"
           cy="480.99399"
           r="8.5159998"
           id="circle4262" />
        <circle
           style="fill:#000000"
           cx="449.29001"
           cy="307.60199"
           r="12.355"
           id="circle4264" />
        <path
           style="fill:#000000"
           d="m 366.382,371.811 c 9.557,0 17.298,-7.742 17.298,-17.295 0,-9.555 -7.741,-17.301 -17.298,-17.301 -9.55,0 -17.296,7.746 -17.296,17.301 0,9.552 7.746,17.295 17.296,17.295 z"
           id="path4266"
           inkscape:connector-curvature="0" />
        <path
           style="fill:#000000"
           d="m 461.645,354.512 c -15.827,0 -28.662,12.834 -28.662,28.666 0,15.83 12.835,28.66 28.662,28.66 15.835,0 28.665,-12.83 28.665,-28.66 0,-15.832 -12.831,-28.666 -28.665,-28.666 z"
           id="path4268"
           inkscape:connector-curvature="0" />
        <path
           style="fill:#000000"
           d="m 203.983,208.458 c 6.771,6.449 14.188,5.481 26.442,5.804 12.253,0.322 15.478,5.482 26.12,8.384 10.641,2.902 17.735,1.935 23.862,-4.514 6.127,-6.449 2.257,-15.801 -5.805,-26.765 -8.062,-10.964 -19.993,-14.833 -35.793,-15.156 -15.8,-0.322 -30.957,6.449 -30.957,6.449 -12.898,9.675 -10.641,19.349 -3.869,25.798 z"
           id="path4270"
           inkscape:connector-curvature="0" />
        <path
           style="fill:#000000"
           d="m 114.046,439.206 c -12.076,-1.241 -17.301,4.193 -8.877,5.059 26.129,2.682 45.135,26.038 42.451,52.167 -1.444,14.052 7.06,12.647 8.877,-5.059 2.684,-26.128 -16.322,-49.484 -42.451,-52.167 z"
           id="path4272"
           inkscape:connector-curvature="0" />
        <path
           style="fill:#000000"
           d="m 127.713,429.897 c -12.076,-1.241 -17.301,4.193 -8.877,5.059 26.129,2.682 45.135,26.038 42.451,52.167 -1.444,14.052 7.06,12.647 8.877,-5.059 2.684,-26.127 -16.322,-49.484 -42.451,-52.167 z"
           id="path4274"
           inkscape:connector-curvature="0" />
        <path
           style="fill:#000000"
           d="m 144.494,422.324 c -12.028,-1.646 -17.432,3.61 -9.042,4.758 26.024,3.557 44.236,27.538 40.677,53.562 -1.915,13.995 6.631,12.877 9.042,-4.758 3.558,-26.023 -14.654,-50.004 -40.677,-53.562 z"
           id="path4276"
           inkscape:connector-curvature="0" />
      </g>
    </g>
    <g
       transform="translate(-129.33847,-110.67582)"
       id="g4463">
      <g
         transform="matrix(0.70710678,0.70710678,-0.70710678,0.70710678,249.89918,-311.02205)"
         id="g4504">
        <path
           id="path4313"
           d="m 619.69604,259.17673 4.37619,-17.11693 c 1.45169,-0.26331 2.9492,-0.57419 4.52483,-1.00494 0,0 -1.62157,-0.0449 -4.29072,0.0873 l 0.63399,-2.47805 c 1.60481,-0.29855 3.25971,-0.64935 4.99407,-1.12453 0,0 -1.78912,-0.0478 -4.73003,0.0917 l 0.65459,-2.56304 c 1.53266,-0.29929 3.12208,-0.66027 4.75855,-1.10753 0,0 -1.68888,-0.0449 -4.49323,0.0707 l 0.71328,-2.7914 c 1.74213,-0.34351 3.54756,-0.75728 5.40552,-1.26484 0,0 -1.87871,-0.0616 -5.09987,0.0691 l 0.82605,-3.22774 c 1.34678,-0.29265 2.71543,-0.61411 4.12241,-0.99911 0,0 -1.44776,-0.0466 -3.97447,0.0264 l -0.0848,-3.08757 c 1.59375,-0.34229 3.21785,-0.7219 4.88622,-1.17765 0,0 -1.78603,-0.0614 -4.91777,0.0376 l -0.0828,-3.02934 c 1.59079,-0.34212 3.21193,-0.72128 4.87733,-1.17628 0,0 -1.78318,-0.0608 -4.90905,0.0379 l -0.0826,-3.03163 c 1.59275,-0.34231 3.21592,-0.72226 4.88432,-1.17828 0,0 -1.78612,-0.0603 -4.916,0.0397 l -0.0841,-3.02598 c 1.59276,-0.34231 3.21391,-0.72149 4.88031,-1.17701 0,0 -1.78316,-0.0607 -4.91101,0.0381 l -0.0831,-3.02622 c 1.59275,-0.34204 3.21491,-0.72174 4.8823,-1.17723 0,0 -1.7841,-0.0613 -4.91389,0.0377 l -0.0836,-3.03165 c 1.58981,-0.34189 3.20999,-0.72135 4.87442,-1.17638 0,0 -1.78132,-0.0596 -4.90629,0.04 l -0.0829,-3.02735 c 1.5918,-0.34238 3.21492,-0.72201 4.88134,-1.17783 0,0 -1.78417,-0.0602 -4.91208,0.0394 l -0.0839,-3.02769 c 1.59177,-0.34207 3.21394,-0.72176 4.88034,-1.17728 0,0 -1.78416,-0.0602 -4.91203,0.0389 l -0.77949,-28.33362 17.67546,-6.94751 -0.0296,-1.21183 -23.79151,-0.0115 -0.055,3.84793 -6.51851,0.0911 -0.24492,-3.94559 -24.07587,-0.0101 0.037,1.21666 18.10195,6.96108 0.82997,30.1482 c -2.14807,0.33324 -4.38841,0.72113 -6.71865,1.18227 0,0 2.53272,0.29496 6.75844,0.26251 l 0.0738,2.72234 c -2.1481,0.33353 -4.39039,0.72134 -6.72064,1.18276 0,0 2.53366,0.29557 6.76041,0.26231 l 0.0759,2.71987 c -2.14804,0.33294 -4.3903,0.72047 -6.72049,1.18104 0,0 2.53366,0.29529 6.75943,0.26256 l 0.0746,2.7235 c -2.14809,0.33354 -4.3914,0.72187 -6.72266,1.18383 0,0 2.53465,0.29504 6.76337,0.26186 l 0.075,2.71952 c -2.14806,0.33324 -4.38935,0.72081 -6.71861,1.182 0,0 2.53168,0.29576 6.75835,0.26365 l 0.0748,2.72239 c -2.1471,0.33299 -4.38548,0.72094 -6.71376,1.18187 0,0 2.5308,0.29488 6.75267,0.26174 l 0.0756,2.7224 c -2.1461,0.33274 -4.38543,0.72038 -6.71275,1.18135 0,0 2.52978,0.29542 6.75253,0.26344 l 0.0746,2.72464 c -2.14809,0.33353 -4.38948,0.72223 -6.71976,1.18393 0,0 2.53372,0.29472 6.75948,0.26171 l 0.0239,0.8642 0.60807,1.93887 c -1.45464,0.24011 -2.94232,0.50233 -4.48524,0.80752 0,0 1.78396,0.20615 4.81009,0.22968 l 0.94379,3.01042 c -1.43771,0.23562 -2.91251,0.49521 -4.4415,0.79748 0,0 1.7725,0.20316 4.76015,0.21982 l 0.86473,2.76031 c -1.18864,0.19633 -2.38944,0.39789 -3.6507,0.64704 0,0 1.44956,0.16784 3.91301,0.18884 l 0.80214,2.55958 c -1.24368,0.20108 -2.52212,0.42194 -3.85291,0.68613 0,0 1.56472,0.16734 4.12053,0.16821 l 0.76744,2.44738 c -1.11594,0.178 -2.2688,0.37798 -3.46659,0.61442 0,0 1.41293,0.15048 3.7048,0.14614 l 5.08528,16.22505 z"
           inkscape:connector-curvature="0" />
        <g
           style="fill:#ffffff;fill-opacity:1;stroke:none;stroke-opacity:1"
           id="g4436"
           transform="matrix(0.53174483,-0.01719453,0.01719453,0.53174483,573.83253,-341.92996)">
          <path
             id="path4438"
             d="m 61.065423,957.36214 0,0 c 0.14655,0.95145 0.186559,1.92223 0,2.85503 -0.187908,0.93998 -0.601844,1.87053 -1.123377,2.77613 l -19.87043,0 c -0.524073,-0.90807 -0.942122,-1.84042 -1.130547,-2.78355 -0.18566,-0.93055 -0.145426,-1.89841 0,-2.84761 l -7.420098,0 c -0.115307,1.42954 -0.04698,2.86964 0.235941,4.28591 0.897932,4.49382 3.646934,8.10924 6.833337,10.7332 3.149585,2.59295 6.668086,4.25175 9.974583,5.66712 3.362331,1.43943 6.422053,2.65206 8.700926,4.37897 0.593302,0.44954 1.129131,0.93639 1.602788,1.44522 l -17.723812,0 c 0.471949,-0.50591 1.005283,-0.99052 1.595618,-1.43826 1.387616,-1.05169 3.121489,-1.91054 4.980155,-2.74758 -2.535829,-1.08811 -5.259859,-2.35132 -7.892384,-4.10722 -0.50798,0.32974 -1.019196,0.6316 -1.516926,1.00899 -1.701844,1.28951 -3.297169,2.88717 -4.522187,4.87279 -1.233671,1.99883 -2.056688,4.34924 -2.103642,6.89072 -0.0472,2.56664 0.697752,4.97842 1.896135,7.04068 1.19002,2.04788 2.791168,3.70668 4.522209,5.03732 3.44563,2.648 7.275099,3.9753 10.661457,5.1879 3.373052,1.2082 6.42511,2.3655 8.672291,4.0926 0.617532,0.4748 1.152911,0.9987 1.631423,1.5456 l -18.138826,0 c 0.48004,-0.5498 1.018139,-1.0756 1.638593,-1.5525 1.359947,-1.0452 3.073457,-1.8681 4.915737,-2.6334 -2.609532,-0.933 -5.530122,-2.0241 -8.414727,-3.8137 -0.320926,0.2203 -0.650821,0.4019 -0.965948,0.644 -1.731041,1.3306 -3.332189,2.9894 -4.522209,5.0373 -1.198315,2.0622 -1.943831,4.4742 -1.896135,7.0409 0.04698,2.5419 0.869971,4.8912 2.103642,6.8906 1.225018,1.9856 2.820343,3.5828 4.522187,4.8728 3.389707,2.5688 7.077279,3.9211 10.253635,5.2807 3.10915,1.3309 5.962062,2.7366 8.200049,4.5794 0.496179,0.4085 0.949607,0.8522 1.380963,1.3093 l -16.285578,0 c 0.429557,-0.4549 0.887301,-0.8957 1.380963,-1.3021 1.332435,-1.0971 2.922591,-2.02 4.615219,-2.8835 -0.0045,0 -0.0067,0 -0.01573,0 -2.355721,-1.0081 -5.150239,-2.067 -7.956758,-3.7211 l 0,0 c -0.432232,0.3151 -0.874647,0.6055 -1.295101,0.9519 -3.186448,2.6233 -5.935449,6.2394 -6.833382,10.733 -0.308474,1.5446 -0.351337,3.1169 -0.186109,4.6725 l 7.441564,0 c -0.215779,-1.0647 -0.282828,-2.1704 -0.07148,-3.2272 0.189031,-0.9468 0.610407,-1.885 1.137694,-2.7978 l 19.856113,0 c 0.524725,0.9104 0.94201,1.8472 1.130569,2.7908 0.211733,1.0596 0.145426,2.1674 -0.07148,3.2342 l 7.441564,0 c 0.16588,-1.5581 0.123174,-3.1326 -0.186109,-4.6797 -0.897933,-4.4938 -3.646934,-8.1097 -6.833382,-10.7332 -3.149586,-2.593 -6.668041,-4.2446 -9.974584,-5.6597 -3.36233,-1.4394 -6.42203,-2.659 -8.700903,-4.3862 -0.593325,-0.4497 -1.129153,-0.9312 -1.602811,-1.4383 l 17.738153,0 c -0.475343,0.51 -1.013644,0.9933 -1.609958,1.4453 -1.38602,1.0503 -3.116837,1.9092 -4.972963,2.7478 2.534301,1.087 5.259679,2.3453 7.892339,4.1003 0.505193,-0.3262 1.014791,-0.6269 1.509778,-1.0021 1.701867,-1.2899 3.297192,-2.8874 4.52221,-4.873 1.233649,-1.9991 2.056665,-4.3486 2.103665,-6.8903 0.04765,-2.5667 -0.697865,-4.9787 -1.896158,-7.0409 -1.189998,-2.0479 -2.79119,-3.7069 -4.522209,-5.0374 -3.44563,-2.648 -7.275099,-3.96761 -10.661458,-5.18069 -3.373074,-1.20791 -6.425132,-2.37289 -8.672312,-4.0998 -0.620455,-0.47696 -1.158553,-1.0027 -1.638594,-1.55271 l 18.138872,0 c -0.47849,0.54709 -1.013936,1.0708 -1.631446,1.54529 -1.365274,1.04923 -3.086291,1.87099 -4.93718,2.6406 2.610161,0.93279 5.531875,2.0245 8.421852,3.81391 0.325691,-0.2225 0.660396,-0.4055 0.980266,-0.6514 1.731019,-1.33064 3.332211,-2.98944 4.522209,-5.03732 1.198405,-2.06226 1.943607,-4.47404 1.896158,-7.04068 -0.0472,-2.54103 -0.869972,-4.89167 -2.103665,-6.89072 -1.224995,-1.98562 -2.820343,-3.58283 -4.52221,-4.87279 -3.389684,-2.56889 -7.077234,-3.92111 -10.253635,-5.28074 -3.109104,-1.33086 -5.962039,-2.73657 -8.200026,-4.57946 -0.496314,-0.4084 -0.956665,-0.8521 -1.388111,-1.30928 l 16.299896,0 c -0.433289,0.45943 -0.889324,0.90605 -1.388155,1.3167 -1.328726,1.09396 -2.913623,2.01484 -4.600902,2.87616 2.357138,1.00899 5.155746,2.06518 7.963929,3.72083 0.429467,-0.31153 0.870083,-0.60058 1.287953,-0.94448 3.186448,-2.62396 5.935449,-6.23938 6.833382,-10.7332 0.283569,-1.41875 0.345471,-2.8611 0.228972,-4.29288 l -7.41295,0 z m -21.494684,28.93613 20.864991,0 c 0.317263,0.74287 0.545112,1.4936 0.558149,2.19668 0.01573,0.69094 -0.184536,1.43268 -0.465094,2.1679 l -21.058203,0 c -0.278085,-0.73252 -0.470668,-1.47269 -0.457946,-2.16071 0.01573,-0.70488 0.239222,-1.4592 0.558103,-2.20387 z m -0.100022,27.38353 21.058225,0 c 0.280266,0.7356 0.477906,1.4778 0.465094,2.1681 -0.01573,0.7004 -0.235941,1.4543 -0.550978,2.1967 l -20.872139,0 c -0.317262,-0.7454 -0.545134,-1.5006 -0.558148,-2.2037 -0.01573,-0.6878 0.179816,-1.4282 0.457946,-2.1611 z"
             style="color:#000000;font-style:normal;font-variant:normal;font-weight:normal;font-stretch:normal;font-size:medium;line-height:normal;font-family:sans-serif;text-indent:0;text-align:start;text-decoration:none;text-decoration-line:none;text-decoration-style:solid;text-decoration-color:#000000;letter-spacing:normal;word-spacing:normal;text-transform:none;direction:ltr;block-progression:tb;writing-mode:lr-tb;baseline-shift:baseline;text-anchor:start;white-space:normal;clip-rule:nonzero;display:inline;overflow:visible;visibility:visible;opacity:1;isolation:auto;mix-blend-mode:normal;color-interpolation:sRGB;color-interpolation-filters:linearRGB;solid-color:#000000;solid-opacity:1;fill:#ffffff;fill-opacity:1;fill-rule:evenodd;stroke:none;stroke-width:2;stroke-linecap:round;stroke-linejoin:miter;stroke-miterlimit:4;stroke-dasharray:none;stroke-dashoffset:0;stroke-opacity:1;color-rendering:auto;image-rendering:auto;shape-rendering:auto;text-rendering:auto;enable-background:accumulate"
             inkscape:connector-curvature="0" />
        </g>
      </g>
    </g>
  </g>
</svg>
